HIERARCHY
ROOT hip
{
	OFFSET 0.000000 0.000000 0.000000 
	CHANNELS 6 Xposition Yposition Zposition Xrotation Zrotation Yrotation
	JOINT abdomen
	{
		OFFSET 0.000000 3.402643 0.000000 
		CHANNELS 3 Xrotation Zrotation Yrotation
		JOINT chest
		{
			OFFSET 0.000000 8.438565 -0.680529 
			CHANNELS 3 Xrotation Zrotation Yrotation
			JOINT neck
			{
				OFFSET 0.000000 10.207942 -0.272212 
				CHANNELS 3 Xrotation Zrotation Yrotation
				JOINT head
				{
					OFFSET 0.000000 3.130431 0.000000 
					CHANNELS 3 Xrotation Zrotation Yrotation
					End Site
					{
						OFFSET 0.000000 3.130435 0.000000 
					}
				}
			}
			JOINT lCollar
			{
				OFFSET 3.470700 6.669187 -0.816635 
				CHANNELS 3 Yrotation Zrotation Xrotation
				JOINT lShldr
				{
					OFFSET 3.198488 0.000000 0.000000 
					CHANNELS 3 Zrotation Yrotation Xrotation
					JOINT lForeArm
					{
						OFFSET 10.139888 0.000000 0.000000 
						CHANNELS 3 Yrotation Zrotation Xrotation
						JOINT lHand
						{
							OFFSET 8.370511 0.000000 0.000000 
							CHANNELS 3 Zrotation Yrotation Xrotation
							End Site
							{
								OFFSET 4.083176 0.000000 0.000000 
							}
						}
					}
				}
			}
			JOINT rCollar
			{
				OFFSET -3.470700 6.669187 -0.816635 
				CHANNELS 3 Yrotation Zrotation Xrotation
				JOINT rShldr
				{
					OFFSET -3.198488 0.000000 0.000000 
					CHANNELS 3 Zrotation Yrotation Xrotation
					JOINT rForeArm
					{
						OFFSET -10.139888 0.000000 0.000000 
						CHANNELS 3 Yrotation Zrotation Xrotation
						JOINT rHand
						{
							OFFSET -8.370511 0.000000 0.000000 
							CHANNELS 3 Zrotation Yrotation Xrotation
							End Site
							{
								OFFSET -4.083176 0.000000 0.000000 
							}
						}
					}
				}
			}
		}
	}
	JOINT lThigh
	{
		OFFSET 5.308129 -1.633274 1.361059 
		CHANNELS 3 Xrotation Zrotation Yrotation
		JOINT lShin
		{
			OFFSET -2.041588 -20.007561 0.000000 
			CHANNELS 3 Xrotation Zrotation Yrotation
			JOINT lFoot
			{
				OFFSET 0.000000 -19.190928 -1.224953 
				CHANNELS 3 Xrotation Yrotation Zrotation
				End Site
				{
					OFFSET 0.000000 -2.449906 4.627600 
				}
			}
		}
	}
	JOINT rThigh
	{
		OFFSET -5.308129 -1.633274 1.361059 
		CHANNELS 3 Xrotation Zrotation Yrotation
		JOINT rShin
		{
			OFFSET 2.041588 -20.007561 0.000000 
			CHANNELS 3 Xrotation Zrotation Yrotation
			JOINT rFoot
			{
				OFFSET 0.000000 -19.190928 -1.224953 
				CHANNELS 3 Xrotation Yrotation Zrotation
				End Site
				{
					OFFSET 0.000000 -2.449906 4.627600 
				}
			}
		}
	}
}
MOTION
Frames: 6
Frame Time: 0.016667
10.425004 44.553398 65.578186 -44.511719 -26.523438 69.897980 0.000000 0.000000 0.000000 9.863281 -11.435547 -20.470686 -5.810546 14.648438 -4.118624 9.648438 29.873045 -5.014668 10.664063 -8.457032 2.110811 -45.068359 -16.552734 60.993309 -83.007813 2.744141 0.908203 22.890625 -18.125000 13.916015 -2.597656 25.000000 7.841796 18.388670 21.621092 5.117187 128.437500 1.406250 5.224609 -23.593750 13.652344 32.658558 -63.377537 47.116470 21.718744 16.449352 -3.519119 -2.123701 -2.356603 -7.701845 26.343534 -2.611362 9.427632 -20.668186 38.697197 2.760607 3.297420 31.176149 1.918324 17.129534 
9.468126 43.730713 65.514015 -39.687500 -26.142580 66.767578 0.000000 0.000000 0.000000 10.166015 -14.550782 -20.517580 -6.875000 13.798828 -3.942983 7.636718 28.115234 -4.726562 10.478517 -8.437500 2.257292 -44.609375 -18.847656 62.138672 -84.345703 2.714844 0.966797 18.671877 -16.679688 13.229620 -2.207031 24.999998 8.222656 23.574217 23.486328 11.152345 127.558594 1.376953 5.224610 -21.181641 12.421876 34.531250 -63.571514 45.883167 24.576735 18.591970 -3.506054 -2.290554 -1.648161 -8.492137 27.742338 -2.927043 10.797493 -20.120567 36.032017 2.946435 3.172122 28.861288 1.569259 13.681507 
8.522918 42.874481 65.338974 -35.078129 -25.351563 62.910152 0.000000 0.000000 0.000000 10.517579 -17.656250 -19.583038 -8.115234 12.792969 -3.583984 5.693360 25.986330 -4.146112 9.765624 -8.291017 2.119141 -43.984375 -21.113281 62.646488 -84.472656 2.832031 0.791016 14.794922 -15.029297 10.798251 -1.416016 25.000000 8.238060 28.417969 25.371094 15.537109 126.679695 1.357422 5.224378 -20.000000 10.927734 36.544827 -63.424793 45.578762 27.395098 21.666613 -3.193999 -2.267839 -0.766208 -9.352947 28.551088 -3.827570 10.302000 -19.390783 35.352222 2.956360 2.943865 23.274929 1.708058 8.970551 
7.627304 42.035759 65.066193 -30.458982 -23.945313 58.042908 0.000000 0.000000 0.000000 10.683594 -20.244141 -17.991659 -9.160156 11.591797 -3.279288 3.437500 23.642576 -3.740234 8.886719 -8.466797 2.198704 -43.203121 -23.017576 62.388760 -83.925781 2.773438 0.771012 10.957031 -13.710938 6.794561 -0.419922 25.000000 8.427734 32.402344 27.607422 18.808596 125.449226 1.318359 5.224384 -20.302736 10.205079 38.105469 -63.073048 46.240551 29.990128 25.040258 -3.195153 -2.672945 1.519040 -9.361221 28.539949 -4.976226 8.843904 -18.202469 36.735832 3.235554 2.777349 15.468367 1.321597 3.861429 
6.813375 41.275799 64.714668 -26.591799 -22.441406 53.154297 0.000000 0.000000 0.000000 10.830078 -22.314451 -15.791015 -10.371094 10.419923 -2.761906 1.464844 20.947266 -2.818774 7.998046 -8.652344 2.265625 -42.431641 -24.736326 61.503906 -82.753906 2.675781 0.722656 6.650391 -13.300781 2.126661 0.771484 25.000000 8.359375 35.859375 30.009768 21.396484 124.218750 1.279297 5.224372 -22.451172 10.566407 38.742027 -62.577019 47.885647 32.152882 29.295698 -2.931818 -3.077372 3.788232 -9.393455 27.751930 -7.117073 6.454328 -17.653069 39.580883 2.770684 3.536523 6.645256 0.543824 -0.197009 
6.104469 40.645660 64.313530 -23.222654 -20.849607 48.736755 0.000000 0.000000 0.000000 11.298828 -23.320311 -14.076131 -11.396484 9.101563 -1.990642 -0.468750 18.417969 -1.744962 7.119140 -9.335938 2.578125 -41.845703 -26.279297 60.087894 -81.103516 2.626953 0.830078 2.382812 -13.388672 -2.382812 2.343750 25.000000 7.974387 38.769531 32.587887 24.091797 122.812500 1.240234 5.224610 -25.781250 12.246094 37.727665 -62.412037 49.657440 32.866524 33.911686 -2.688097 -3.311463 6.472613 -9.442006 26.247936 -10.221274 3.486084 -16.233517 43.303822 2.526149 3.346558 -1.053559 0.510173 -2.997943 
